# xmcd CD database file
#
# Track frame offsets:
#	150
#	30135
#	55887
#	72695
#	94700
#	111205
#	135560
#	146975
#	168730
#	187310
#	210355
#
# Disc length: 3002 seconds
#
# Revision: 19
# Processed by: cddbd v1.5.2PL0 Copyright (c) Steve Scherf et al.
# Submitted via: CDex 2.09
#
DISCID=a60bb80b
DTITLE=Tom Waits - Small Change
DYEAR=1976
DGENRE=Rock
TTITLE0=Tom Traubert's Blues
TTITLE1=Step Right Up
TTITLE2=Jitterbug Boy
TTITLE3=I Wish I Was In New Orleans
TTITLE4=The Piano Has Been Drinking
TTITLE5=Invitation To The Blues
TTITLE6=Pasties And A G-String
TTITLE7=Bad Liver And A Broken Heart
TTITLE8=The One That Got Away
TTITLE9=Small Change
TTITLE10=I Can't Wait To Get Off Work
EXTD=YEAR: 1976
EXTT0=
EXTT1=
EXTT2=
EXTT3=
EXTT4=
EXTT5=
EXTT6=
EXTT7=
EXTT8=
EXTT9=
EXTT10=
PLAYORDER=
